<?xml version="1.0" encoding="UTF-8"?>
<svg width="26px" height="42px" viewBox="0 0 26 42" version="1.1" xmlns="http://www.w3.org/2000/svg" xmlns:xlink="http://www.w3.org/1999/xlink">
    <!-- Generator: Sketch 57.1 (83088) - https://sketch.com -->
    <title>bolt</title>
    <desc>Created with Sketch.</desc>
    <defs>
        <path d="M15.833948,-1.42108547e-13 L1,-1.42108547e-13 C0.44771525,-1.42118116e-13 5.23348914e-14,0.44771525 5.15143483e-14,1 L5.15143483e-14,23.00149 C5.820703e-14,23.5537747 0.44771525,24.00149 1,24.00149 L7.65179454,24.00149 L7.65179454,24.00149 L7.65179454,38.1767786 C7.65179454,38.7290634 8.09950979,39.1767786 8.65179454,39.1767786 C9.01344951,39.1767786 9.34692337,38.9815085 9.52389249,38.66611 L23.6500835,13.4900763 C23.9203338,13.0084299 23.7489633,12.3988973 23.2673169,12.128647 C23.1178607,12.0447877 22.949361,12.000745 22.7779856,12.000745 L16.833948,12.000745 L16.833948,12.000745 L16.833948,1 C16.833948,0.44771525 16.3862327,-1.41228945e-13 15.833948,-1.42108547e-13 Z" id="path-1"></path>
    </defs>
    <g id="Page-1" stroke="none" stroke-width="1" fill="none" fill-rule="evenodd">
        <g id="New-Contact" transform="translate(-500.000000, -681.000000)">
            <g id="Services" transform="translate(130.000000, 597.000000)">
                <g id="Start-new-project" transform="translate(371.000000, 85.000000)">
                    <g id="bolt">
                        <g id="Group-2">
                            <mask id="mask-2" fill="white">
                                <use xlink:href="#path-1"></use>
                            </mask>
                            <use id="bolt" fill="#F3E276" xlink:href="#path-1"></use>
                            <path d="M23.833948,-1.42108547e-13 L9,-1.42108547e-13 C8.44771525,-1.42118116e-13 8,0.44771525 8,1 L8,23.00149 C8,23.5537747 8.44771525,24.00149 9,24.00149 L15.6517945,24.00149 L15.6517945,24.00149 L15.6517945,38.1767786 C15.6517945,38.7290634 16.0995098,39.1767786 16.6517945,39.1767786 C17.0134495,39.1767786 17.3469234,38.9815085 17.5238925,38.66611 L31.6500835,13.4900763 C31.9203338,13.0084299 31.7489633,12.3988973 31.2673169,12.128647 C31.1178607,12.0447877 30.949361,12.000745 30.7779856,12.000745 L24.833948,12.000745 L24.833948,12.000745 L24.833948,1 C24.833948,0.44771525 24.3862327,-1.41228945e-13 23.833948,-1.42108547e-13 Z" id="bolt" fill="#F4C069" mask="url(#mask-2)"></path>
                        </g>
                        <path d="M15.833948,-1.42108547e-13 L1,-1.42108547e-13 C0.44771525,-1.42118116e-13 5.23348914e-14,0.44771525 5.15143483e-14,1 L5.15143483e-14,23.00149 C5.820703e-14,23.5537747 0.44771525,24.00149 1,24.00149 L7.65179454,24.00149 L7.65179454,24.00149 L7.65179454,38.1767786 C7.65179454,38.7290634 8.09950979,39.1767786 8.65179454,39.1767786 C9.01344951,39.1767786 9.34692337,38.9815085 9.52389249,38.66611 L23.6500835,13.4900763 C23.9203338,13.0084299 23.7489633,12.3988973 23.2673169,12.128647 C23.1178607,12.0447877 22.949361,12.000745 22.7779856,12.000745 L16.833948,12.000745 L16.833948,12.000745 L16.833948,1 C16.833948,0.44771525 16.3862327,-1.41228945e-13 15.833948,-1.42108547e-13 Z" stroke="#183746" stroke-width="2"></path>
                    </g>
                </g>
            </g>
        </g>
    </g>
</svg>